M48
; DRILL file {KiCad 9.0.4} date 2026-05-05T22:52:49+0200
; FORMAT={-:-/ absolute / metric / decimal}
; #@! TF.CreationDate,2026-05-05T22:52:49+02:00
; #@! TF.GenerationSoftware,Kicad,Pcbnew,9.0.4
; #@! TF.FileFunction,Plated,1,2,PTH
FMAT,2
METRIC
; #@! TA.AperFunction,Plated,PTH,ViaDrill
T1C0.400
; #@! TA.AperFunction,Plated,PTH,ComponentDrill
T2C0.750
; #@! TA.AperFunction,Plated,PTH,ComponentDrill
T3C0.800
; #@! TA.AperFunction,Plated,PTH,ComponentDrill
T4C0.950
; #@! TA.AperFunction,Plated,PTH,ComponentDrill
T5C1.000
; #@! TA.AperFunction,Plated,PTH,ComponentDrill
T6C1.100
; #@! TA.AperFunction,Plated,PTH,ComponentDrill
T7C1.200
; #@! TA.AperFunction,Plated,PTH,ComponentDrill
T8C1.500
; #@! TA.AperFunction,Plated,PTH,ComponentDrill
T9C1.700
; #@! TA.AperFunction,Plated,PTH,ComponentDrill
T10C2.400
; #@! TA.AperFunction,Plated,PTH,ComponentDrill
T11C3.200
%
G90
G05
T1
X81.9Y-105.833
X106.775Y-89.383
X114.175Y-51.658
X117.525Y-68.358
X121.8Y-51.658
X142.55Y-66.258
X150.775Y-63.808
X152.65Y-84.583
X160.825Y-73.158
X162.05Y-84.633
X166.425Y-99.008
X166.625Y-56.708
X169.225Y-82.333
X172.575Y-66.558
X175.47Y-59.28
X175.47Y-63.17
X184.525Y-61.458
T2
X101.18Y-118.423
X102.45Y-118.423
X103.72Y-118.423
X170.204Y-50.869
X170.204Y-52.139
X170.204Y-53.409
X171.064Y-70.565
X171.064Y-71.835
X171.064Y-73.105
X192.34Y-106.444
X192.34Y-107.714
X192.34Y-108.984
X197.763Y-50.869
X197.763Y-52.139
X197.763Y-53.409
T3
X83.15Y-68.008
X84.077Y-93.533
X84.077Y-110.433
X87.577Y-93.533
X87.577Y-110.433
X88.15Y-68.008
X93.777Y-74.253
X93.777Y-84.413
X94.95Y-92.978
X94.95Y-97.978
X94.95Y-106.485
X94.95Y-111.485
X96.31Y-52.933
X99.455Y-74.253
X99.455Y-84.413
X101.31Y-52.933
X102.095Y-112.067
X102.12Y-105.133
X105.918Y-79.333
X108.05Y-52.925
X108.05Y-63.085
X108.418Y-79.333
X108.995Y-108.6
X108.995Y-112.067
X109.0Y-105.133
X114.54Y-121.383
X114.565Y-117.183
X114.621Y-55.423
X114.621Y-57.963
X114.621Y-60.503
X114.621Y-63.043
X114.68Y-104.935
X114.68Y-107.475
X114.68Y-110.015
X114.68Y-112.555
X114.9Y-68.104
X114.9Y-73.104
X114.9Y-76.675
X114.9Y-86.835
X115.985Y-92.105
X115.985Y-98.51
X117.244Y-48.773
X119.744Y-48.773
X120.985Y-92.105
X120.985Y-98.51
X122.16Y-121.383
X122.185Y-117.183
X122.241Y-55.423
X122.241Y-57.963
X122.241Y-60.503
X122.241Y-63.043
X122.3Y-104.935
X122.3Y-107.475
X122.3Y-110.015
X122.3Y-112.555
X122.479Y-68.141
X122.479Y-73.141
X122.555Y-76.799
X122.555Y-86.959
X126.6Y-56.535
X126.6Y-61.535
X127.2Y-50.935
X131.21Y-97.638
X131.43Y-91.67
X131.47Y-85.669
X131.55Y-56.585
X131.55Y-61.585
X132.2Y-50.935
X134.078Y-70.885
X136.21Y-97.638
X136.43Y-91.67
X136.47Y-85.669
X136.578Y-70.885
X137.05Y-54.205
X137.05Y-64.365
X142.9Y-50.885
X144.8Y-87.425
X144.8Y-97.585
X147.9Y-50.885
X148.3Y-105.335
X148.3Y-110.335
X151.073Y-90.005
X151.073Y-95.005
X153.671Y-52.139
X153.973Y-71.342
X153.973Y-78.962
X156.332Y-105.184
X156.332Y-107.724
X156.332Y-110.264
X157.245Y-87.425
X157.245Y-97.585
X158.507Y-70.072
X158.507Y-80.232
X163.291Y-69.981
X163.291Y-80.141
X163.418Y-87.425
X163.418Y-97.585
X163.469Y-102.635
X163.469Y-112.795
X163.831Y-52.139
X169.171Y-105.214
X169.171Y-110.214
X169.844Y-56.762
X169.844Y-64.382
X170.251Y-88.701
X170.251Y-96.321
X171.368Y-77.658
X171.368Y-79.658
X172.791Y-88.701
X172.791Y-96.321
X174.874Y-105.214
X174.874Y-110.214
X175.331Y-88.701
X175.331Y-96.321
X177.871Y-88.701
X177.871Y-96.321
X177.941Y-72.702
X177.941Y-77.702
X180.411Y-88.701
X180.411Y-96.321
X180.576Y-105.214
X180.576Y-110.214
X181.17Y-52.139
X182.917Y-72.702
X182.917Y-77.702
X182.951Y-88.701
X182.951Y-96.321
X185.491Y-88.701
X185.491Y-96.321
X186.278Y-105.214
X186.278Y-110.214
X187.893Y-72.702
X187.893Y-77.702
X188.031Y-88.701
X188.031Y-96.321
X190.571Y-88.701
X190.571Y-96.321
X191.33Y-52.139
X192.87Y-72.702
X192.87Y-77.702
X196.742Y-95.956
X196.747Y-89.022
X196.747Y-92.489
X197.403Y-56.533
X197.403Y-64.153
X197.683Y-102.634
X197.683Y-112.794
X197.921Y-78.402
X202.221Y-70.802
X202.221Y-73.402
X202.221Y-76.302
X202.221Y-79.202
X203.385Y-102.634
X203.385Y-112.794
X203.622Y-95.956
X203.647Y-89.022
X206.485Y-51.633
X206.485Y-55.133
X206.485Y-60.533
X206.485Y-63.033
X209.062Y-72.702
X209.062Y-77.702
X209.087Y-102.634
X209.087Y-112.794
X209.189Y-87.426
X209.189Y-97.586
T4
X81.6Y-119.497
X84.1Y-119.497
X86.6Y-119.497
X89.1Y-119.497
T5
X71.882Y-54.983
X76.882Y-54.983
X83.4Y-44.5
X85.082Y-54.783
X85.9Y-44.5
X90.082Y-54.783
X103.13Y-97.983
X103.595Y-43.258
X105.63Y-92.983
X106.135Y-43.258
X108.13Y-97.983
X108.675Y-43.258
X131.25Y-108.834
X133.75Y-103.834
X134.0Y-44.5
X136.25Y-108.834
X136.5Y-44.5
X142.795Y-58.025
X142.795Y-63.025
X147.795Y-60.525
X152.8Y-44.5
X154.032Y-58.818
X154.032Y-63.898
X155.3Y-44.5
X161.652Y-58.818
X161.652Y-63.898
X163.25Y-119.497
X164.192Y-58.818
X164.192Y-63.898
X165.75Y-119.497
X180.45Y-44.5
X181.611Y-58.805
X181.611Y-63.885
X182.95Y-44.5
X189.231Y-58.805
X189.231Y-63.885
X191.771Y-58.805
X191.771Y-63.885
T6
X80.65Y-102.433
X82.7Y-77.783
X82.7Y-81.183
X86.4Y-76.083
X86.4Y-79.483
X86.4Y-82.883
X90.81Y-102.433
T8
X133.71Y-118.027
X148.3Y-118.027
X189.123Y-118.027
T9
X131.17Y-115.487
X131.17Y-120.567
X136.25Y-115.487
X136.25Y-120.567
X145.76Y-115.487
X145.76Y-120.567
X150.84Y-115.487
X150.84Y-120.567
X186.583Y-115.487
X186.583Y-120.567
X191.663Y-115.487
X191.663Y-120.567
T10
X75.65Y-66.733
X75.65Y-92.133
T11
X68.025Y-44.558
X68.025Y-119.558
X208.75Y-44.485
X208.75Y-119.485
T7
G00X105.795Y-103.833
M15
G01X105.295Y-103.833
M16
G05
G00X105.795Y-113.333
M15
G01X105.295Y-113.333
M16
G05
G00X199.947Y-87.756
M15
G01X200.447Y-87.756
M16
G05
G00X199.947Y-97.256
M15
G01X200.447Y-97.256
M16
G05
M30
