%TF.GenerationSoftware,KiCad,Pcbnew,9.0.4*%
%TF.CreationDate,2026-05-05T22:52:22+02:00*%
%TF.ProjectId,RX_TDA1572,52585f54-4441-4313-9537-322e6b696361,rev?*%
%TF.SameCoordinates,Original*%
%TF.FileFunction,Soldermask,Bot*%
%TF.FilePolarity,Negative*%
%FSLAX46Y46*%
G04 Gerber Fmt 4.6, Leading zero omitted, Abs format (unit mm)*
G04 Created by KiCad (PCBNEW 9.0.4) date 2026-05-05 22:52:22*
%MOMM*%
%LPD*%
G01*
G04 APERTURE LIST*
G04 Aperture macros list*
%AMRoundRect*
0 Rectangle with rounded corners*
0 $1 Rounding radius*
0 $2 $3 $4 $5 $6 $7 $8 $9 X,Y pos of 4 corners*
0 Add a 4 corners polygon primitive as box body*
4,1,4,$2,$3,$4,$5,$6,$7,$8,$9,$2,$3,0*
0 Add four circle primitives for the rounded corners*
1,1,$1+$1,$2,$3*
1,1,$1+$1,$4,$5*
1,1,$1+$1,$6,$7*
1,1,$1+$1,$8,$9*
0 Add four rect primitives between the rounded corners*
20,1,$1+$1,$2,$3,$4,$5,0*
20,1,$1+$1,$4,$5,$6,$7,0*
20,1,$1+$1,$6,$7,$8,$9,0*
20,1,$1+$1,$8,$9,$2,$3,0*%
G04 Aperture macros list end*
%ADD10R,1.600000X1.600000*%
%ADD11C,1.600000*%
%ADD12RoundRect,0.250000X-0.550000X-0.550000X0.550000X-0.550000X0.550000X0.550000X-0.550000X0.550000X0*%
%ADD13C,3.600000*%
%ADD14C,5.600000*%
%ADD15RoundRect,0.250000X-0.600000X-0.750000X0.600000X-0.750000X0.600000X0.750000X-0.600000X0.750000X0*%
%ADD16O,1.700000X2.000000*%
%ADD17C,2.050000*%
%ADD18C,2.250000*%
%ADD19O,1.600000X1.600000*%
%ADD20RoundRect,0.250000X0.600000X0.750000X-0.600000X0.750000X-0.600000X-0.750000X0.600000X-0.750000X0*%
%ADD21R,1.800000X1.800000*%
%ADD22C,1.800000*%
%ADD23O,2.200000X1.800000*%
%ADD24RoundRect,0.393701X1.106299X0.606299X-1.106299X0.606299X-1.106299X-0.606299X1.106299X-0.606299X0*%
%ADD25R,2.000000X2.000000*%
%ADD26C,2.000000*%
%ADD27RoundRect,0.393701X-1.106299X-0.606299X1.106299X-0.606299X1.106299X0.606299X-1.106299X0.606299X0*%
%ADD28R,1.500000X1.050000*%
%ADD29O,1.500000X1.050000*%
%ADD30R,1.050000X1.500000*%
%ADD31O,1.050000X1.500000*%
%ADD32RoundRect,0.190500X1.079500X0.444500X-1.079500X0.444500X-1.079500X-0.444500X1.079500X-0.444500X0*%
%ADD33R,1.700000X1.700000*%
%ADD34O,1.700000X1.700000*%
%ADD35C,1.440000*%
%ADD36RoundRect,0.250000X-0.550000X0.550000X-0.550000X-0.550000X0.550000X-0.550000X0.550000X0.550000X0*%
%ADD37C,4.000000*%
%ADD38RoundRect,0.250000X-0.600000X-0.725000X0.600000X-0.725000X0.600000X0.725000X-0.600000X0.725000X0*%
%ADD39O,1.700000X1.950000*%
%ADD40R,2.200000X2.200000*%
%ADD41O,2.200000X2.200000*%
G04 APERTURE END LIST*
D10*
%TO.C,C33*%
X117243600Y-48773000D03*
D11*
X119743600Y-48773000D03*
%TD*%
D12*
%TO.C,U2*%
X114680000Y-104935000D03*
D11*
X114680000Y-107475000D03*
X114680000Y-110015000D03*
X114680000Y-112555000D03*
X122300000Y-112555000D03*
X122300000Y-110015000D03*
X122300000Y-107475000D03*
X122300000Y-104935000D03*
%TD*%
D13*
%TO.C,H2*%
X68025000Y-119557800D03*
D14*
X68025000Y-119557800D03*
%TD*%
D15*
%TO.C,J6*%
X163250000Y-119496800D03*
D16*
X165750000Y-119496800D03*
%TD*%
D11*
%TO.C,C28*%
X114900000Y-73104400D03*
X114900000Y-68104400D03*
%TD*%
D17*
%TO.C,J3*%
X148300000Y-118026800D03*
D18*
X145760000Y-115486800D03*
X145760000Y-120566800D03*
X150840000Y-115486800D03*
X150840000Y-120566800D03*
%TD*%
D11*
%TO.C,R9*%
X163291200Y-80140800D03*
D19*
X163291200Y-69980800D03*
%TD*%
D11*
%TO.C,R3*%
X197682800Y-102634400D03*
D19*
X197682800Y-112794400D03*
%TD*%
D13*
%TO.C,H1*%
X68025000Y-44557800D03*
D14*
X68025000Y-44557800D03*
%TD*%
D20*
%TO.C,J8*%
X85900000Y-44500000D03*
D16*
X83400000Y-44500000D03*
%TD*%
D11*
%TO.C,C29*%
X122479200Y-73141400D03*
X122479200Y-68141400D03*
%TD*%
%TO.C,C9*%
X148300000Y-105335000D03*
X148300000Y-110335000D03*
%TD*%
D10*
%TO.C,C13*%
X171368400Y-79658200D03*
D11*
X171368400Y-77658200D03*
%TD*%
%TO.C,C24*%
X131210000Y-97637513D03*
X136210000Y-97637513D03*
%TD*%
%TO.C,R15*%
X122555400Y-86959000D03*
D19*
X122555400Y-76799000D03*
%TD*%
D11*
%TO.C,C1*%
X209062000Y-72702400D03*
X209062000Y-77702400D03*
%TD*%
%TO.C,C34*%
X96310300Y-52932800D03*
X101310300Y-52932800D03*
%TD*%
D10*
%TO.C,C25*%
X84077300Y-93532800D03*
D11*
X87577300Y-93532800D03*
%TD*%
D10*
%TO.C,C5*%
X206484800Y-55132800D03*
D11*
X206484800Y-51632800D03*
%TD*%
%TO.C,C4*%
X180575900Y-110214400D03*
X180575900Y-105214400D03*
%TD*%
D21*
%TO.C,U3*%
X86400000Y-82882800D03*
D22*
X82700000Y-81182800D03*
X86400000Y-79482800D03*
X82700000Y-77782800D03*
X86400000Y-76082800D03*
%TD*%
D23*
%TO.C,TR2*%
X108995000Y-112067000D03*
X108995000Y-108599900D03*
X109000000Y-105132800D03*
X102120400Y-105132800D03*
X102095000Y-112067000D03*
D24*
X105545000Y-103833400D03*
X105545000Y-113333400D03*
%TD*%
D11*
%TO.C,C10*%
X187893500Y-72702400D03*
X187893500Y-77702400D03*
%TD*%
D20*
%TO.C,J5*%
X136500000Y-44500000D03*
D16*
X134000000Y-44500000D03*
%TD*%
D11*
%TO.C,C14*%
X177941200Y-77702400D03*
X177941200Y-72702400D03*
%TD*%
D13*
%TO.C,H4*%
X208750000Y-119485000D03*
D14*
X208750000Y-119485000D03*
%TD*%
D11*
%TO.C,L1*%
X144800000Y-97585000D03*
D19*
X144800000Y-87425000D03*
%TD*%
D11*
%TO.C,C8*%
X192869700Y-72702400D03*
X192869700Y-77702400D03*
%TD*%
D25*
%TO.C,RV4*%
X136250000Y-108833800D03*
D26*
X133750000Y-103833800D03*
X131250000Y-108833800D03*
%TD*%
D12*
%TO.C,U4*%
X114621000Y-55422800D03*
D11*
X114621000Y-57962800D03*
X114621000Y-60502800D03*
X114621000Y-63042800D03*
X122241000Y-63042800D03*
X122241000Y-60502800D03*
X122241000Y-57962800D03*
X122241000Y-55422800D03*
%TD*%
D10*
%TO.C,D4*%
X197403400Y-64153400D03*
D19*
X197403400Y-56533400D03*
%TD*%
D11*
%TO.C,R7*%
X157245500Y-97585000D03*
D19*
X157245500Y-87425000D03*
%TD*%
D11*
%TO.C,C19*%
X132200000Y-50935000D03*
X127200000Y-50935000D03*
%TD*%
%TO.C,C16*%
X136470000Y-85668713D03*
X131470000Y-85668713D03*
%TD*%
%TO.C,C12*%
X151072700Y-90005000D03*
X151072700Y-95005000D03*
%TD*%
D23*
%TO.C,TR1*%
X196747400Y-89022000D03*
X196747400Y-92489100D03*
X196742400Y-95956200D03*
X203622000Y-95956200D03*
X203647400Y-89022000D03*
D27*
X200197400Y-97255600D03*
X200197400Y-87755600D03*
%TD*%
D20*
%TO.C,J2*%
X182950000Y-44500000D03*
D16*
X180450000Y-44500000D03*
%TD*%
D25*
%TO.C,K1*%
X191771000Y-58804800D03*
D26*
X189231000Y-58804800D03*
X181611000Y-58804800D03*
X181611000Y-63884800D03*
X189231000Y-63884800D03*
X191771000Y-63884800D03*
%TD*%
D28*
%TO.C,Q2*%
X197763400Y-53409200D03*
D29*
X197763400Y-52139200D03*
X197763400Y-50869200D03*
%TD*%
D25*
%TO.C,RV2*%
X108130000Y-97982800D03*
D26*
X105630000Y-92982800D03*
X103130000Y-97982800D03*
%TD*%
D11*
%TO.C,R16*%
X108050000Y-63085000D03*
D19*
X108050000Y-52925000D03*
%TD*%
D10*
%TO.C,D1*%
X169844400Y-64382000D03*
D19*
X169844400Y-56762000D03*
%TD*%
D13*
%TO.C,H3*%
X208750000Y-44485000D03*
D14*
X208750000Y-44485000D03*
%TD*%
D11*
%TO.C,C31*%
X126600000Y-56535000D03*
X126600000Y-61535000D03*
%TD*%
D28*
%TO.C,Q3*%
X171063600Y-70565000D03*
D29*
X171063600Y-71835000D03*
X171063600Y-73105000D03*
%TD*%
D30*
%TO.C,U5*%
X103720000Y-118422800D03*
D31*
X102450000Y-118422800D03*
X101180000Y-118422800D03*
%TD*%
D10*
%TO.C,C22*%
X84077300Y-110432800D03*
D11*
X87577300Y-110432800D03*
%TD*%
%TO.C,R5*%
X181170000Y-52139200D03*
D19*
X191330000Y-52139200D03*
%TD*%
D10*
%TO.C,D6*%
X114565000Y-117182800D03*
D19*
X122185000Y-117182800D03*
%TD*%
D11*
%TO.C,R13*%
X93777500Y-84412800D03*
D19*
X93777500Y-74252800D03*
%TD*%
D11*
%TO.C,R17*%
X137050000Y-64365000D03*
D19*
X137050000Y-54205000D03*
%TD*%
D28*
%TO.C,Q4*%
X170204400Y-53409200D03*
D29*
X170204400Y-52139200D03*
X170204400Y-50869200D03*
%TD*%
D11*
%TO.C,C26*%
X120985000Y-92105000D03*
X115985000Y-92105000D03*
%TD*%
%TO.C,R4*%
X209189000Y-97585600D03*
D19*
X209189000Y-87425600D03*
%TD*%
D11*
%TO.C,R14*%
X114900000Y-86835000D03*
D19*
X114900000Y-76675000D03*
%TD*%
D11*
%TO.C,C35*%
X131550000Y-56585000D03*
X131550000Y-61585000D03*
%TD*%
D10*
%TO.C,C36*%
X134077600Y-70885000D03*
D11*
X136577600Y-70885000D03*
%TD*%
D32*
%TO.C,FL1*%
X202220800Y-70802400D03*
X202220800Y-73402400D03*
X202220800Y-76302400D03*
X202220800Y-79202400D03*
X197920800Y-78402400D03*
%TD*%
D11*
%TO.C,R8*%
X158507100Y-70071600D03*
D19*
X158507100Y-80231600D03*
%TD*%
D10*
%TO.C,C23*%
X105917600Y-79332800D03*
D11*
X108417600Y-79332800D03*
%TD*%
%TO.C,C15*%
X131430000Y-91670000D03*
X136430000Y-91670000D03*
%TD*%
D33*
%TO.C,RV3*%
X108675000Y-43257800D03*
D34*
X106135000Y-43257800D03*
X103595000Y-43257800D03*
%TD*%
D11*
%TO.C,C30*%
X88150000Y-68007800D03*
X83150000Y-68007800D03*
%TD*%
D10*
%TO.C,C3*%
X206484800Y-63032800D03*
D11*
X206484800Y-60532800D03*
%TD*%
D35*
%TO.C,RV1*%
X156331600Y-110264400D03*
X156331600Y-107724400D03*
X156331600Y-105184400D03*
%TD*%
D11*
%TO.C,R10*%
X163418200Y-97585000D03*
D19*
X163418200Y-87425000D03*
%TD*%
D11*
%TO.C,C11*%
X182917400Y-72702400D03*
X182917400Y-77702400D03*
%TD*%
%TO.C,C21*%
X142900000Y-50885000D03*
X147900000Y-50885000D03*
%TD*%
D36*
%TO.C,U1*%
X190570800Y-88700600D03*
D11*
X188030800Y-88700600D03*
X185490800Y-88700600D03*
X182950800Y-88700600D03*
X180410800Y-88700600D03*
X177870800Y-88700600D03*
X175330800Y-88700600D03*
X172790800Y-88700600D03*
X170250800Y-88700600D03*
X170250800Y-96320600D03*
X172790800Y-96320600D03*
X175330800Y-96320600D03*
X177870800Y-96320600D03*
X180410800Y-96320600D03*
X182950800Y-96320600D03*
X185490800Y-96320600D03*
X188030800Y-96320600D03*
X190570800Y-96320600D03*
%TD*%
%TO.C,R6*%
X163469000Y-102635000D03*
D19*
X163469000Y-112795000D03*
%TD*%
D11*
%TO.C,R2*%
X209087400Y-102634400D03*
D19*
X209087400Y-112794400D03*
%TD*%
D28*
%TO.C,Q1*%
X192340500Y-108984400D03*
D29*
X192340500Y-107714400D03*
X192340500Y-106444400D03*
%TD*%
D10*
%TO.C,D3*%
X122160000Y-121382800D03*
D19*
X114540000Y-121382800D03*
%TD*%
D10*
%TO.C,D2*%
X153973000Y-78961600D03*
D19*
X153973000Y-71341600D03*
%TD*%
D11*
%TO.C,C2*%
X186278200Y-105214400D03*
X186278200Y-110214400D03*
%TD*%
%TO.C,R12*%
X99454900Y-84412800D03*
D19*
X99454900Y-74252800D03*
%TD*%
D11*
%TO.C,R1*%
X203385100Y-102634400D03*
D19*
X203385100Y-112794400D03*
%TD*%
D37*
%TO.C,HS1*%
X75650000Y-92132800D03*
X75650000Y-66732800D03*
%TD*%
D11*
%TO.C,C7*%
X174873600Y-110214400D03*
X174873600Y-105214400D03*
%TD*%
%TO.C,C18*%
X115985000Y-98510000D03*
X120985000Y-98510000D03*
%TD*%
%TO.C,C17*%
X94950000Y-97977800D03*
X94950000Y-92977800D03*
%TD*%
D17*
%TO.C,J7*%
X133710000Y-118026800D03*
D18*
X131170000Y-115486800D03*
X131170000Y-120566800D03*
X136250000Y-115486800D03*
X136250000Y-120566800D03*
%TD*%
D25*
%TO.C,C27*%
X71882300Y-54982800D03*
D26*
X76882300Y-54982800D03*
%TD*%
D25*
%TO.C,C32*%
X85082300Y-54782800D03*
D26*
X90082300Y-54782800D03*
%TD*%
D38*
%TO.C,J9*%
X89100000Y-119496800D03*
D39*
X86600000Y-119496800D03*
X84100000Y-119496800D03*
X81600000Y-119496800D03*
%TD*%
D25*
%TO.C,RV5*%
X142795000Y-63025000D03*
D26*
X147795000Y-60525000D03*
X142795000Y-58025000D03*
%TD*%
D17*
%TO.C,J1*%
X189123000Y-118026800D03*
D18*
X186583000Y-115486800D03*
X186583000Y-120566800D03*
X191663000Y-115486800D03*
X191663000Y-120566800D03*
%TD*%
D11*
%TO.C,R11*%
X153671000Y-52139200D03*
D19*
X163831000Y-52139200D03*
%TD*%
D25*
%TO.C,K2*%
X164192000Y-58818100D03*
D26*
X161652000Y-58818100D03*
X154032000Y-58818100D03*
X154032000Y-63898100D03*
X161652000Y-63898100D03*
X164192000Y-63898100D03*
%TD*%
D11*
%TO.C,C6*%
X169171300Y-105214400D03*
X169171300Y-110214400D03*
%TD*%
D20*
%TO.C,J4*%
X155300000Y-44500000D03*
D16*
X152800000Y-44500000D03*
%TD*%
D40*
%TO.C,D5*%
X80650000Y-102432800D03*
D41*
X90810000Y-102432800D03*
%TD*%
D11*
%TO.C,C20*%
X94950000Y-106485000D03*
X94950000Y-111485000D03*
%TD*%
M02*
